<svg width="24" height="24" viewBox="0 0 24 24" fill="none" xmlns="http://www.w3.org/2000/svg">
<path opacity="0.4" d="M17 5.75V18.25C17 18.664 16.664 19 16.25 19H12.657C11.596 19 10.5791 18.5789 9.8291 17.8279L6.43994 14.439C6.15894 14.158 5.77691 14 5.37891 14H3V10H5.37891C5.77691 10 6.15794 9.84204 6.43994 9.56104L9.8291 6.17212C10.5791 5.42212 11.597 5 12.657 5H16.25C16.664 5 17 5.336 17 5.75Z" fill="#25314C"/>
<path d="M21 7.75H17V9.25H21C21.41 9.25 21.75 8.91 21.75 8.5C21.75 8.09 21.41 7.75 21 7.75Z" fill="#25314C"/>
<path d="M21 14.75H17V16.25H21C21.41 16.25 21.75 15.91 21.75 15.5C21.75 15.09 21.41 14.75 21 14.75Z" fill="#25314C"/>
<path d="M12.25 10V14C12.25 14.414 12.586 14.75 13 14.75C13.414 14.75 13.75 14.414 13.75 14V10C13.75 9.586 13.414 9.25 13 9.25C12.586 9.25 12.25 9.586 12.25 10Z" fill="#25314C"/>
</svg>
